<svg width="24" height="24" viewBox="0 0 24 24" fill="none" xmlns="http://www.w3.org/2000/svg">
<path fill-rule="evenodd" clip-rule="evenodd" d="M20.4851 20.4853C18.2347 22.7357 15.1825 24 11.9999 24C8.81726 24 5.76501 22.7357 3.51458 20.4853C1.26414 18.2348 -0.000140256 15.1826 -0.000140256 12C-0.000140256 8.8174 1.26414 5.76516 3.51458 3.51472C5.76501 1.26428 8.81726 -9.50197e-08 11.9999 -9.50197e-08C15.1825 -9.50197e-08 18.2347 1.26428 20.4851 3.51472C22.7356 5.76516 23.9999 8.8174 23.9999 12C23.9999 15.1826 22.7356 18.2348 20.4851 20.4853ZM16.2425 7.75736C15.7739 7.28873 15.0141 7.28873 14.5454 7.75736L11.9999 10.3029L9.45428 7.75736C8.98565 7.28873 8.22585 7.28873 7.75722 7.75736V7.75736C7.28859 8.22599 7.28859 8.98579 7.75722 9.45441L10.3028 12L7.75722 14.5456C7.28859 15.0142 7.28859 15.774 7.75722 16.2426V16.2426C8.22585 16.7113 8.98565 16.7113 9.45427 16.2426L11.9999 13.6971L14.5454 16.2426C15.0141 16.7113 15.7739 16.7113 16.2425 16.2426V16.2426C16.7111 15.774 16.7111 15.0142 16.2425 14.5456L13.6969 12L16.2425 9.45442C16.7111 8.98579 16.7111 8.22599 16.2425 7.75736V7.75736Z" fill="#FFE3E3"/>
</svg>
