<svg width="40" height="40" viewBox="0 0 40 40" fill="none" xmlns="http://www.w3.org/2000/svg">
<path d="M0 1.875C0 0.835938 0.749411 0 1.68092 0H4.86767C6.40851 0 7.77426 1 8.41161 2.5H37.1974C39.0394 2.5 40.3841 4.45312 39.9009 6.4375L37.0293 18.3359C36.434 20.7891 34.4379 22.5 32.1616 22.5H11.9556L12.3338 24.7266C12.4878 25.6094 13.1812 26.25 13.9867 26.25H34.1787C35.1102 26.25 35.8596 27.0859 35.8596 28.125C35.8596 29.1641 35.1102 30 34.1787 30H13.9867C11.5633 30 9.4832 28.0781 9.03495 25.4297L5.42097 4.25781C5.37194 3.96094 5.14082 3.75 4.86767 3.75H1.68092C0.749411 3.75 0 2.91406 0 1.875ZM8.96491 36.25C8.96491 35.7575 9.05187 35.2699 9.22082 34.8149C9.38977 34.36 9.6374 33.9466 9.94957 33.5984C10.2617 33.2501 10.6324 32.9739 11.0402 32.7855C11.4481 32.597 11.8853 32.5 12.3268 32.5C12.7682 32.5 13.2054 32.597 13.6133 32.7855C14.0212 32.9739 14.3918 33.2501 14.7039 33.5984C15.0161 33.9466 15.2637 34.36 15.4327 34.8149C15.6016 35.2699 15.6886 35.7575 15.6886 36.25C15.6886 36.7425 15.6016 37.2301 15.4327 37.6851C15.2637 38.14 15.0161 38.5534 14.7039 38.9017C14.3918 39.2499 14.0212 39.5261 13.6133 39.7146C13.2054 39.903 12.7682 40 12.3268 40C11.8853 40 11.4481 39.903 11.0402 39.7146C10.6324 39.5261 10.2617 39.2499 9.94957 38.9017C9.6374 38.5534 9.38977 38.14 9.22082 37.6851C9.05187 37.2301 8.96491 36.7425 8.96491 36.25ZM32.4978 32.5C33.3894 32.5 34.2445 32.8951 34.875 33.5984C35.5055 34.3016 35.8596 35.2554 35.8596 36.25C35.8596 37.2446 35.5055 38.1984 34.875 38.9017C34.2445 39.6049 33.3894 40 32.4978 40C31.6062 40 30.7511 39.6049 30.1206 38.9017C29.4902 38.1984 29.136 37.2446 29.136 36.25C29.136 35.2554 29.4902 34.3016 30.1206 33.5984C30.7511 32.8951 31.6062 32.5 32.4978 32.5Z" fill="black"/>
</svg>
