<svg width="56" height="194" viewBox="0 0 56 194" fill="none" xmlns="http://www.w3.org/2000/svg">
<g clip-path="url(#clip0_305_14269)">
<path d="M5.83957 49.6255L0 194L55.6506 193.85L52.1569 50.0757L5.83957 49.6255Z" fill="#002A50"/>
<path d="M56.0307 43.8311L1.42822 43.3186L1.36934 49.6219L55.9718 50.1343L56.0307 43.8311Z" fill="#002A50"/>
<path d="M12.1782 43.4224L12.4777 11.2058L27.451 4.85254H30.9946L46.1176 11.9062L45.8182 43.7226L12.1782 43.4224Z" fill="#EDEEF0"/>
<path d="M12.5071 11.3992L12.2837 35.3115L45.9236 35.6272L46.147 11.7149L12.5071 11.3992Z" fill="#EDEDED"/>
<path d="M27.4512 4.8525V0L30.7952 0.0500258L30.7453 4.8525H28.0002" fill="#002A50"/>
<path opacity="0.94" d="M53.0052 86.2944L4.34212 85.7942L3.04443 118.661L53.8537 119.161L53.0052 86.2944Z" fill="#F7F7F8"/>
<path d="M50.0109 43.7725C50.0109 43.7725 49.961 43.5724 49.961 43.2222C49.961 42.822 49.961 42.3218 49.9111 41.6714C49.9111 40.2707 49.9111 38.3697 49.9111 35.9685L50.0608 36.1186C44.8202 36.1186 37.2337 36.0685 28.7489 36.0185C20.314 35.9185 12.6776 35.8184 7.43695 35.7184L7.58668 35.5683C7.53677 37.9195 7.48686 39.8705 7.43695 41.2712C7.43695 41.8715 7.38704 42.4218 7.38704 42.822C7.38704 43.1722 7.33713 43.3723 7.33713 43.3723C7.33713 43.3723 7.28722 43.1722 7.28722 42.822C7.28722 42.4218 7.28722 41.9216 7.2373 41.2712C7.2373 39.8705 7.2373 37.9695 7.2373 35.5683V35.4182H7.38704C12.6277 35.4182 20.2141 35.4682 28.699 35.5183C37.1339 35.6183 44.7703 35.7184 50.0109 35.8184H50.1607V35.9685C50.1107 38.3197 50.0608 40.2707 50.0109 41.6714C50.0109 42.2717 49.961 42.822 49.961 43.2222C50.0608 43.5724 50.0608 43.7725 50.0109 43.7725Z" fill="#002A50"/>
<path d="M37.8825 43.6224C37.7328 43.6224 37.633 41.8715 37.6829 39.7704C37.6829 37.6193 37.8326 35.9185 37.9824 35.9185C38.1321 35.9185 38.2319 37.6694 38.182 39.7704C38.182 41.9215 38.0323 43.6224 37.8825 43.6224Z" fill="#002A50"/>
<path d="M22.1609 43.4723C22.0111 43.4723 21.9113 41.7214 21.9612 39.6203C21.9612 37.4692 22.111 35.7683 22.2607 35.7683C22.4104 35.7683 22.5102 37.5192 22.4603 39.6203C22.4104 41.7714 22.3106 43.4723 22.1609 43.4723Z" fill="#002A50"/>
<path d="M21.9609 35.4182C21.8112 35.4182 21.7613 30.0654 21.8112 23.462C21.8611 16.8586 22.0608 11.5059 22.1606 11.5059C22.3103 11.5059 22.3602 16.8586 22.3103 23.462C22.2604 30.0654 22.1107 35.4182 21.9609 35.4182Z" fill="#2D3536"/>
<path d="M35.187 35.5183C35.0373 35.5183 34.9874 30.1655 35.0373 23.5621C35.0872 16.9587 35.2369 11.606 35.3866 11.606C35.5364 11.606 35.5863 16.9587 35.5364 23.5621C35.4366 30.1655 35.2868 35.5183 35.187 35.5183Z" fill="#2D3536"/>
<path d="M46.0178 23.7623C46.0178 23.8123 45.5686 23.8123 44.7201 23.8624C43.7718 23.8624 42.5739 23.9124 41.1265 23.9124C38.0819 23.9624 33.8894 23.9624 29.2477 23.9624C24.606 23.9624 20.4135 23.8624 17.3689 23.8123C14.3243 23.7123 12.4277 23.5622 12.4277 23.4622C14.9233 23.4622 20.7129 23.4622 29.2477 23.5122C33.8395 23.5622 37.9821 23.6122 41.1265 23.6122C42.5739 23.6623 43.7718 23.6623 44.7201 23.7123C45.5186 23.6623 46.0178 23.7123 46.0178 23.7623Z" fill="#2D3536"/>
<path opacity="0.94" d="M1.64691 153.079L54.7022 153.579L55.5007 186.596L0.299316 185.846L1.64691 153.079Z" fill="#F7F7F8"/>
<path d="M10.6789 66.2492L8.0835 66.2249L7.98909 76.3301L10.5845 76.3544L10.6789 66.2492Z" fill="#001D31"/>
<path d="M47.8639 99.1677L45.2686 99.1433L45.1741 109.249L47.7695 109.273L47.8639 99.1677Z" fill="#001D31"/>
<path d="M9.53091 132.086L6.93555 132.062L6.84114 142.167L9.43651 142.191L9.53091 132.086Z" fill="#001D31"/>
<path d="M49.8107 169.157L47.2153 169.133L47.1209 179.238L49.7163 179.262L49.8107 169.157Z" fill="#001D31"/>
</g>
<defs>
<clipPath id="clip0_305_14269">
<rect width="56" height="194" fill="white"/>
</clipPath>
</defs>
</svg>
