<svg width="65" height="65" viewBox="0 0 65 65" fill="none" xmlns="http://www.w3.org/2000/svg">
<path d="M32.5 65C50.4493 65 65 50.4493 65 32.5C65 14.5507 50.4493 0 32.5 0C14.5507 0 0 14.5507 0 32.5C0 50.4493 14.5507 65 32.5 65Z" fill="#C4D4DF"/>
<path d="M32.4999 59.1946C47.243 59.1946 59.1946 47.243 59.1946 32.4999C59.1946 17.7568 47.243 5.80518 32.4999 5.80518C17.7568 5.80518 5.80518 17.7568 5.80518 32.4999C5.80518 47.243 17.7568 59.1946 32.4999 59.1946Z" fill="#A0BCC8"/>
<path opacity="0.5" d="M30.5015 62.7672H30.4539H30.2636C29.6926 62.7197 29.3119 62.2438 29.3595 61.7204C29.4071 61.1494 29.8829 60.7211 30.4063 60.8163H30.5967C31.1677 60.8639 31.5483 61.3397 31.5008 61.8631C31.4532 62.3866 31.0249 62.7672 30.5015 62.7672ZM38.3053 62.2914C37.8295 62.2914 37.4012 61.9583 37.306 61.4825C37.2109 60.959 37.544 60.4356 38.0674 60.2929L38.2577 60.2453C38.7811 60.1501 39.3046 60.4832 39.4473 61.0066C39.5425 61.5301 39.2094 62.0535 38.686 62.1962L38.4956 62.2438C38.4005 62.2914 38.3529 62.2914 38.3053 62.2914ZM22.6977 61.197C22.6025 61.197 22.4598 61.197 22.3646 61.1494L22.1743 61.1018C21.6508 60.9115 21.3653 60.3404 21.5557 59.817C21.746 59.2936 22.317 59.0081 22.8404 59.1984L23.0308 59.246C23.5542 59.4363 23.8397 60.0074 23.6494 60.5308C23.459 60.9115 23.0784 61.197 22.6977 61.197ZM45.8236 59.6267C45.4429 59.6267 45.1098 59.4363 44.9195 59.0557C44.6816 58.5798 44.8719 57.9612 45.3478 57.7233L45.4905 57.6281C45.9664 57.3902 46.585 57.5806 46.8229 58.0564C47.0608 58.5322 46.8705 59.1508 46.3946 59.3888L46.2043 59.4839C46.1567 59.6267 45.9664 59.6267 45.8236 59.6267ZM15.5601 57.4854C15.3697 57.4854 15.1794 57.4378 14.989 57.2951L14.8463 57.1999C14.418 56.8668 14.2753 56.2482 14.6084 55.82C14.9415 55.3917 15.5601 55.2489 15.9883 55.582L16.1311 55.6772C16.5593 56.0103 16.7021 56.6289 16.369 57.0571C16.1787 57.3426 15.8931 57.4854 15.5601 57.4854ZM52.3902 55.0586C52.1047 55.0586 51.8668 54.9634 51.6765 54.7255C51.2958 54.2973 51.3434 53.6787 51.724 53.298L51.8668 53.1552C52.2475 52.7746 52.9136 52.8221 53.2943 53.2028C53.675 53.5835 53.6274 54.2497 53.2467 54.6303L53.104 54.7731C52.8661 54.9634 52.6281 55.0586 52.3902 55.0586ZM9.7072 52.0608C9.4217 52.0608 9.13619 51.918 8.94586 51.6801L8.8031 51.5374C8.47001 51.1091 8.5176 50.4905 8.94586 50.1099C9.37411 49.7768 9.99271 49.8243 10.3734 50.2526L10.4685 50.3954C10.8016 50.8236 10.7541 51.4422 10.3258 51.8229C10.183 51.9656 9.94512 52.0608 9.7072 52.0608ZM57.4817 48.9202C57.2914 48.9202 57.1011 48.8727 56.9583 48.7775C56.4825 48.492 56.3397 47.8734 56.6252 47.3975L56.7204 47.2548C57.0059 46.779 57.6245 46.6362 58.1003 46.9217C58.5762 47.2072 58.7189 47.8258 58.4334 48.3017L58.3382 48.492C58.1479 48.7299 57.8148 48.9202 57.4817 48.9202ZM5.56738 45.2563C5.18671 45.2563 4.80603 45.0183 4.66328 44.6377L4.61569 44.4949C4.37777 43.9715 4.61569 43.3529 5.13912 43.1626C5.66255 42.9246 6.23356 43.1626 6.42389 43.6384L6.51906 43.8287C6.75698 44.3522 6.51906 44.9232 5.99564 45.1611C5.85288 45.2087 5.71013 45.2563 5.56738 45.2563ZM60.7175 41.5923C60.6223 41.5923 60.5271 41.5923 60.4795 41.5447C59.9561 41.4019 59.623 40.8785 59.7658 40.3551L59.8134 40.1648C59.9561 39.6413 60.5271 39.3082 61.0505 39.451C61.574 39.5937 61.9071 40.1648 61.7643 40.6882L61.7167 40.8309C61.574 41.2592 61.1457 41.5923 60.7175 41.5923ZM3.37851 37.5476C2.90266 37.5476 2.4744 37.167 2.37924 36.6911L2.33165 36.5008C2.28407 35.9773 2.66474 35.4539 3.18817 35.3588C3.7116 35.2636 4.23502 35.6918 4.33019 36.2153L4.37777 36.4056C4.47294 36.929 4.09227 37.4525 3.52126 37.5476C3.47367 37.5476 3.42609 37.5476 3.37851 37.5476ZM61.8595 33.6933C61.8595 33.6933 61.8119 33.6933 61.8595 33.6933C61.2885 33.6933 60.8602 33.265 60.8602 32.694V32.5037V32.4085C60.8602 31.8375 61.2885 31.4093 61.8595 31.4093C62.4305 31.4093 62.8587 31.8375 62.8587 32.4085V32.5513V32.7416C62.8112 33.2651 62.3829 33.6933 61.8595 33.6933ZM3.37851 29.5535C3.33092 29.5535 3.28334 29.5535 3.23575 29.5535C2.71233 29.4583 2.28407 28.9825 2.37924 28.4115L2.42682 28.2211C2.52199 27.6977 2.99783 27.317 3.56884 27.3646C4.09227 27.4598 4.47294 27.9356 4.42536 28.5066L4.37777 28.697C4.28261 29.1728 3.85435 29.5535 3.37851 29.5535ZM60.765 25.6516C60.3368 25.6516 59.9085 25.3661 59.8134 24.9378L59.7658 24.7475C59.623 24.2241 59.9085 23.653 60.4319 23.5103C60.9554 23.3675 61.5264 23.653 61.6691 24.1765L61.7167 24.3668C61.8595 24.8902 61.574 25.4612 61.003 25.604C60.9554 25.6516 60.8602 25.6516 60.765 25.6516ZM5.5198 21.8448C5.37704 21.8448 5.23429 21.7973 5.13912 21.7497C4.61569 21.5118 4.37777 20.9407 4.61569 20.4173L4.71086 20.227C4.94878 19.7036 5.51979 19.5132 6.04322 19.7036C6.56665 19.9415 6.75698 20.5125 6.56665 21.0359L6.47148 21.2262C6.28114 21.6545 5.90047 21.8448 5.5198 21.8448ZM57.6245 18.3236C57.2914 18.3236 56.9583 18.1333 56.768 17.8478L56.6728 17.705C56.3873 17.2292 56.53 16.6106 57.0059 16.3251C57.4817 16.0396 58.1003 16.1823 58.3858 16.6582L58.481 16.8485C58.7665 17.3243 58.6237 17.9429 58.1479 18.2284C57.9576 18.276 57.7672 18.3236 57.6245 18.3236ZM9.65962 15.0403C9.4217 15.0403 9.23136 14.9451 9.04102 14.8024C8.61276 14.4693 8.56518 13.8031 8.89827 13.3749L9.04102 13.2321C9.37411 12.8038 10.0403 12.7563 10.4685 13.0894C10.8968 13.4224 10.9444 14.0886 10.6113 14.5169L10.5161 14.6596C10.2306 14.8976 9.94512 15.0403 9.65962 15.0403ZM52.5806 12.0901C52.3426 12.0901 52.1047 11.9949 51.8668 11.8046L51.724 11.6618C51.2958 11.2812 51.2958 10.6626 51.6765 10.2343C52.0571 9.80605 52.6757 9.80605 53.104 10.1867L53.2467 10.3295C53.6274 10.7101 53.675 11.3287 53.2943 11.757C53.104 11.9949 52.8661 12.0901 52.5806 12.0901ZM15.4649 9.56812C15.1318 9.56812 14.8463 9.42537 14.656 9.13987C14.3229 8.71161 14.418 8.04543 14.8939 7.75993L15.0842 7.61717C15.5601 7.28408 16.1787 7.42684 16.4642 7.85509C16.7972 8.33094 16.6545 8.94953 16.2262 9.23504L16.0835 9.3302C15.8931 9.47296 15.7028 9.56812 15.4649 9.56812ZM46.0615 7.47442C45.9188 7.47442 45.7284 7.42684 45.5857 7.37925L45.4429 7.28408C44.9671 7.04616 44.7768 6.42757 45.0147 5.95173C45.2526 5.47589 45.8712 5.28555 46.347 5.52347L46.5374 5.61864C47.0132 5.85656 47.2035 6.47515 46.9656 6.95099C46.7753 7.28408 46.4422 7.47442 46.0615 7.47442ZM22.5549 5.85656C22.1267 5.85656 21.746 5.61864 21.6033 5.19038C21.4129 4.66695 21.6984 4.09594 22.2218 3.90561L22.4122 3.85802C22.9356 3.66769 23.5066 3.95319 23.697 4.47662C23.8873 5.00004 23.6018 5.57105 23.0784 5.76139L22.888 5.80897C22.7929 5.80897 22.6501 5.85656 22.5549 5.85656ZM38.5432 4.76212C38.4956 4.76212 38.4005 4.76212 38.3529 4.76212L38.1625 4.71454C37.6391 4.61937 37.2585 4.09594 37.4012 3.52493C37.4964 3.00151 38.0198 2.62083 38.5908 2.76359L38.7811 2.81117C39.3046 2.90634 39.6852 3.47735 39.5425 4.00078C39.4473 4.42903 39.0191 4.76212 38.5432 4.76212ZM30.3587 4.19111C29.8353 4.19111 29.4071 3.81044 29.3595 3.23943C29.3119 2.66842 29.7401 2.19258 30.2636 2.19258H30.4539C30.9773 2.14499 31.5008 2.57325 31.5008 3.14426C31.5483 3.71527 31.1201 4.19111 30.5491 4.19111H30.3587C30.4063 4.19111 30.4063 4.19111 30.3587 4.19111Z" fill="white"/>
</svg>
