<svg width="66" height="78" viewBox="0 0 66 78" fill="none" xmlns="http://www.w3.org/2000/svg">
<path d="M12.3751 69.6481L27.3956 39.7027C27.874 38.7938 29.1177 38.6982 29.6917 39.5114L33.6143 44.8212C33.8535 45.156 34.284 45.3952 34.7145 45.3952H41.3159C42.3204 45.3952 42.9902 46.4476 42.5596 47.3565L27.4913 77.254C27.0129 78.1629 25.7692 78.2586 25.1473 77.4454L21.3204 72.0399C21.0812 71.6572 20.6507 71.4659 20.1724 71.4659L13.571 71.6094C12.5664 71.6572 11.8967 70.557 12.3751 69.6481Z" fill="#B3B960"/>
<path d="M53.8598 69.6481L38.7914 39.7027C38.3131 38.7938 37.0693 38.6982 36.4953 39.5114L32.5727 44.8212C32.3335 45.156 31.903 45.3952 31.4725 45.3952H24.8711C23.8666 45.3952 23.1969 46.4476 23.6274 47.3565L38.6957 77.254C39.1741 78.1629 40.4178 78.2586 41.0397 77.4454L44.8666 72.0399C45.1058 71.6572 45.5363 71.4659 46.0147 71.4659L52.616 71.6094C53.6206 71.6572 54.2903 70.557 53.8598 69.6481Z" fill="#B3B960"/>
<path d="M32.672 65.344C50.7163 65.344 65.344 50.7163 65.344 32.672C65.344 14.6278 50.7163 0 32.672 0C14.6278 0 0 14.6278 0 32.672C0 50.7163 14.6278 65.344 32.672 65.344Z" fill="#D2DA71"/>
<path d="M32.6729 59.509C47.4941 59.509 59.509 47.4941 59.509 32.6729C59.509 17.8518 47.4941 5.83691 32.6729 5.83691C17.8518 5.83691 5.83691 17.8518 5.83691 32.6729C5.83691 47.4941 17.8518 59.509 32.6729 59.509Z" fill="#B3B960"/>
<path opacity="0.5" d="M30.6614 63.0979H30.6135H30.4222C29.8481 63.05 29.4655 62.5717 29.5133 62.0455C29.5611 61.4715 30.0395 61.0409 30.5657 61.1366H30.757C31.3311 61.1844 31.7137 61.6628 31.6659 62.189C31.6181 62.7152 31.1876 63.0979 30.6614 63.0979ZM38.5065 62.6195C38.0281 62.6195 37.5976 62.2847 37.5019 61.8063C37.4062 61.2801 37.7411 60.7539 38.2673 60.6104L38.4586 60.5626C38.9848 60.4669 39.511 60.8017 39.6545 61.3279C39.7502 61.8541 39.4154 62.3803 38.8892 62.5238L38.6978 62.5717C38.6021 62.6195 38.5543 62.6195 38.5065 62.6195ZM22.8162 61.5193C22.7206 61.5193 22.5771 61.5193 22.4814 61.4715L22.29 61.4236C21.7639 61.2323 21.4768 60.6582 21.6682 60.132C21.8595 59.6058 22.4336 59.3188 22.9597 59.5102L23.1511 59.558C23.6773 59.7494 23.9643 60.3234 23.773 60.8496C23.5816 61.2323 23.1989 61.5193 22.8162 61.5193ZM46.0646 59.9407C45.6819 59.9407 45.347 59.7494 45.1557 59.3667C44.9165 58.8883 45.1078 58.2664 45.5862 58.0273L45.7297 57.9316C46.2081 57.6924 46.8299 57.8838 47.0691 58.3621C47.3083 58.8405 47.117 59.4623 46.6386 59.7015L46.4473 59.7972C46.3994 59.9407 46.2081 59.9407 46.0646 59.9407ZM15.6408 57.7881C15.4495 57.7881 15.2581 57.7402 15.0668 57.5967L14.9233 57.5011C14.4928 57.1662 14.3493 56.5443 14.6841 56.1138C15.019 55.6833 15.6408 55.5398 16.0714 55.8746L16.2149 55.9703C16.6454 56.3052 16.7889 56.927 16.454 57.3576C16.2627 57.6446 15.9757 57.7881 15.6408 57.7881ZM52.6659 55.3484C52.3789 55.3484 52.1397 55.2528 51.9484 55.0136C51.5657 54.5831 51.6135 53.9612 51.9962 53.5785L52.1397 53.435C52.5224 53.0523 53.1921 53.1001 53.5748 53.4828C53.9575 53.8655 53.9097 54.5352 53.527 54.9179L53.3835 55.0614C53.1443 55.2528 52.9051 55.3484 52.6659 55.3484ZM9.757 52.3348C9.46999 52.3348 9.18297 52.1913 8.99163 51.9521L8.84812 51.8086C8.51326 51.3781 8.5611 50.7562 8.99163 50.3735C9.42215 50.0386 10.044 50.0865 10.4267 50.517L10.5224 50.6605C10.8572 51.091 10.8094 51.7129 10.3789 52.0956C10.2354 52.2391 9.99618 52.3348 9.757 52.3348ZM57.7844 49.1776C57.593 49.1776 57.4017 49.1298 57.2582 49.0341C56.7798 48.7471 56.6363 48.1252 56.9233 47.6468L57.019 47.5033C57.306 47.025 57.9279 46.8815 58.4063 47.1685C58.8846 47.4555 59.0281 48.0774 58.7411 48.5557L58.6454 48.7471C58.4541 48.9863 58.1192 49.1776 57.7844 49.1776ZM5.59527 45.4942C5.21258 45.4942 4.82989 45.255 4.68638 44.8724L4.63855 44.7288C4.39937 44.2026 4.63855 43.5808 5.16474 43.3894C5.69094 43.1503 6.26497 43.3894 6.45631 43.8678L6.55199 44.0591C6.79117 44.5853 6.55199 45.1594 6.02579 45.3985C5.88229 45.4464 5.73878 45.4942 5.59527 45.4942ZM61.0372 41.8108C60.9416 41.8108 60.8459 41.8108 60.7981 41.763C60.2719 41.6195 59.937 41.0933 60.0805 40.5671L60.1284 40.3758C60.2719 39.8496 60.8459 39.5147 61.3721 39.6582C61.8983 39.8017 62.2331 40.3758 62.0896 40.902L62.0418 41.0455C61.8983 41.476 61.4678 41.8108 61.0372 41.8108ZM3.39481 37.7448C2.91645 37.7448 2.48592 37.3621 2.39025 36.8837L2.34242 36.6924C2.29458 36.1662 2.67727 35.64 3.20347 35.5443C3.72966 35.4487 4.25586 35.8792 4.35153 36.4054L4.39937 36.5967C4.49504 37.1229 4.11235 37.6491 3.53832 37.7448C3.49048 37.7448 3.44265 37.7448 3.39481 37.7448ZM62.1853 33.8701C62.1853 33.8701 62.1375 33.8701 62.1853 33.8701C61.6113 33.8701 61.1808 33.4395 61.1808 32.8655V32.6742V32.5785C61.1808 32.0045 61.6113 31.5739 62.1853 31.5739C62.7593 31.5739 63.1899 32.0045 63.1899 32.5785V32.722V32.9133C63.142 33.4395 62.7115 33.8701 62.1853 33.8701ZM3.39481 29.7083C3.34697 29.7083 3.29914 29.7083 3.2513 29.7083C2.7251 29.6127 2.29458 29.1343 2.39025 28.5603L2.43809 28.3689C2.53376 27.8427 3.01212 27.46 3.58615 27.5079C4.11235 27.6035 4.49504 28.0819 4.4472 28.6559L4.39937 28.8473C4.3037 29.3256 3.87317 29.7083 3.39481 29.7083ZM61.0851 25.7858C60.6546 25.7858 60.224 25.4988 60.1284 25.0682L60.0805 24.8769C59.937 24.3507 60.224 23.7767 60.7502 23.6331C61.2764 23.4896 61.8505 23.7767 61.994 24.3029L62.0418 24.4942C62.1853 25.0204 61.8983 25.5944 61.3243 25.7379C61.2764 25.7858 61.1807 25.7858 61.0851 25.7858ZM5.54743 21.9589C5.40392 21.9589 5.26042 21.9111 5.16474 21.8632C4.63855 21.624 4.39937 21.05 4.63855 20.5238L4.73422 20.3325C4.9734 19.8063 5.54743 19.6149 6.07363 19.8063C6.59983 20.0454 6.79117 20.6195 6.59982 21.1457L6.50415 21.337C6.31281 21.7675 5.93012 21.9589 5.54743 21.9589ZM57.9279 18.419C57.593 18.419 57.2582 18.2277 57.0669 17.9407L56.9712 17.7972C56.6842 17.3188 56.8277 16.6969 57.306 16.4099C57.7844 16.1229 58.4063 16.2664 58.6933 16.7448L58.789 16.9361C59.076 17.4145 58.9325 18.0363 58.4541 18.3233C58.2627 18.3712 58.0714 18.419 57.9279 18.419ZM9.70917 15.1183C9.46999 15.1183 9.27864 15.0227 9.0873 14.8792C8.65677 14.5443 8.60894 13.8746 8.94379 13.4441L9.0873 13.3006C9.42215 12.87 10.0919 12.8222 10.5224 13.1571C10.9529 13.4919 11.0007 14.1616 10.6659 14.5921L10.5702 14.7356C10.2832 14.9748 9.99618 15.1183 9.70917 15.1183ZM52.8573 12.1525C52.6181 12.1525 52.3789 12.0568 52.1397 11.8655L51.9962 11.722C51.5657 11.3393 51.5657 10.7174 51.9484 10.2869C52.3311 9.85637 52.953 9.85637 53.3835 10.2391L53.527 10.3826C53.9097 10.7653 53.9575 11.3871 53.5748 11.8176C53.3835 12.0568 53.1443 12.1525 52.8573 12.1525ZM15.5452 9.61719C15.2103 9.61719 14.9233 9.47368 14.732 9.18667C14.3971 8.75614 14.4928 8.08644 14.9711 7.79942L15.1625 7.65591C15.6408 7.32106 16.2627 7.46457 16.5497 7.89509C16.8846 8.37345 16.7411 8.99532 16.3105 9.28234L16.167 9.37801C15.9757 9.52152 15.7843 9.61719 15.5452 9.61719ZM46.3037 7.51241C46.1602 7.51241 45.9689 7.46457 45.8254 7.41673L45.6819 7.32106C45.2035 7.08188 45.0122 6.46001 45.2513 5.98165C45.4905 5.50329 46.1124 5.31195 46.5908 5.55113L46.7821 5.6468C47.2605 5.88598 47.4518 6.50785 47.2126 6.98621C47.0213 7.32106 46.6864 7.51241 46.3037 7.51241ZM22.6727 5.88598C22.2422 5.88598 21.8595 5.6468 21.716 5.21628C21.5247 4.69008 21.8117 4.11605 22.3379 3.9247L22.5292 3.87687C23.0554 3.68552 23.6295 3.97254 23.8208 4.49873C24.0121 5.02493 23.7251 5.59896 23.1989 5.79031L23.0076 5.83814C22.9119 5.83814 22.7684 5.88598 22.6727 5.88598ZM38.7456 4.78575C38.6978 4.78575 38.6021 4.78575 38.5543 4.78575L38.363 4.73792C37.8368 4.64224 37.4541 4.11605 37.5976 3.54201C37.6933 3.01582 38.2195 2.63313 38.7935 2.77664L38.9848 2.82447C39.511 2.92015 39.8937 3.49418 39.7502 4.02037C39.6545 4.4509 39.224 4.78575 38.7456 4.78575ZM30.5178 4.21172C29.9916 4.21172 29.5611 3.82903 29.5133 3.255C29.4655 2.68097 29.896 2.20261 30.4222 2.20261H30.6135C31.1397 2.15477 31.6659 2.58529 31.6659 3.15933C31.7137 3.73336 31.2832 4.21172 30.7092 4.21172H30.5178C30.5657 4.21172 30.5657 4.21172 30.5178 4.21172Z" fill="white"/>
</svg>
