<svg width="50" height="50" viewBox="0 0 50 50" fill="none" xmlns="http://www.w3.org/2000/svg">
<path d="M8.40927 21.6676L14.3009 27.5593L27.5593 14.3009L21.6655 8.40927L8.40927 21.6655V21.6676ZM34.9239 33.4509L24.6114 23.1384L23.1405 24.6134L33.453 34.9259L34.9239 33.4509ZM37.8718 36.3988L36.3989 37.8718L40.0801 41.553C40.2766 41.7428 40.5397 41.8478 40.8128 41.8454C41.0859 41.843 41.3472 41.7335 41.5403 41.5403C41.7335 41.3472 41.843 41.0859 41.8454 40.8128C41.8478 40.5397 41.7428 40.2766 41.553 40.0801L37.8718 36.3988ZM15.6468 8.53427L18.7197 5.45927C19.1066 5.07218 19.566 4.76511 20.0717 4.55561C20.5773 4.34611 21.1192 4.23828 21.6666 4.23828C22.2139 4.23828 22.7558 4.34611 23.2615 4.55561C23.7671 4.76511 24.2265 5.07218 24.6134 5.45927L30.5051 11.353C31.2862 12.1344 31.725 13.194 31.725 14.2988C31.725 15.4037 31.2862 16.4633 30.5051 17.2447L27.5593 20.1905L44.5009 37.1322C44.9846 37.6159 45.3683 38.1901 45.6301 38.8221C45.8919 39.4541 46.0266 40.1315 46.0266 40.8155C46.0266 41.4996 45.8919 42.1769 45.6301 42.8089C45.3683 43.4409 44.9846 44.0151 44.5009 44.4988C44.0172 44.9825 43.443 45.3662 42.811 45.628C42.179 45.8898 41.5017 46.0245 40.8176 46.0245C40.1335 46.0245 39.4562 45.8898 38.8242 45.628C38.1922 45.3662 37.618 44.9825 37.1343 44.4988L20.1926 27.5572L17.2468 30.503C16.4654 31.2841 15.4058 31.723 14.3009 31.723C13.1961 31.723 12.1365 31.2841 11.3551 30.503L5.45927 24.6134C5.07218 24.2265 4.76511 23.7671 4.55561 23.2615C4.34611 22.7558 4.23828 22.2139 4.23828 21.6666C4.23828 21.1192 4.34611 20.5773 4.55561 20.0717C4.76511 19.566 5.07218 19.1066 5.45927 18.7197L8.53218 15.6488C8.25328 15.0655 8.16222 14.4099 8.27155 13.7726C8.38088 13.1353 8.68521 12.5476 9.1426 12.0905L12.0905 9.14677C12.5476 8.68938 13.1353 8.38504 13.7726 8.27571C14.4099 8.16638 15.0655 8.25745 15.6489 8.53635L15.6468 8.53427Z" fill="black"/>
</svg>
