<svg width="376" height="493" viewBox="0 0 376 493" fill="none" xmlns="http://www.w3.org/2000/svg">
<g clip-path="url(#clip0_305_14192)">
<path d="M333.323 493H41.7411C28.0752 493 17 480.405 17 464.865V29.1353C17 13.5946 28.0752 1 41.7411 1H333.259C346.925 1 358 13.5946 358 29.1353V464.865C358.064 480.405 346.989 493 333.323 493Z" fill="#D3D4DB"/>
<path d="M348 23H28V455H348V23Z" fill="#F7F7F8" stroke="#F7F7F8" stroke-width="4.1239" stroke-miterlimit="10"/>
<path d="M209.041 17.864H166.635C165.533 17.864 164.625 16.958 164.625 15.8578C164.625 14.7576 165.533 13.8516 166.635 13.8516H209.041C210.143 13.8516 211.051 14.7576 211.051 15.8578C211.116 16.958 210.208 17.864 209.041 17.864Z" fill="#5D82AF"/>
<path d="M187.848 483.891C191.99 483.891 195.348 480.533 195.348 476.391C195.348 472.249 191.99 468.891 187.848 468.891C183.706 468.891 180.348 472.249 180.348 476.391C180.348 480.533 183.706 483.891 187.848 483.891Z" fill="#C2C3C9" stroke="#EDEEF0" stroke-width="0.877023" stroke-miterlimit="10"/>
<path d="M356.882 15.7909C353.316 6.53641 344.303 0 333.799 0H41.9518C31.3828 0 22.4348 6.53641 18.8686 15.7909L0 51.8383H375.816L356.882 15.7909Z" fill="#B57556"/>
<path d="M35.9922 51.8383H77.4253L96.4884 0H59.2051L35.9922 51.8383Z" fill="#EDEEF0"/>
<path d="M169.696 0H131.31L119.898 51.8383H163.471L169.696 0Z" fill="#EDEEF0"/>
<path d="M316.943 0H279.66L298.658 51.8383H340.156L316.943 0Z" fill="#EDEEF0"/>
<path d="M244.843 0H206.457L212.682 51.8383H256.255L244.843 0Z" fill="#EDEEF0"/>
<path d="M142.001 76.3715H141.353C129.487 76.3715 119.891 66.7934 119.891 54.9502V51.8438H163.463V54.9502C163.463 66.7934 153.867 76.3715 142.001 76.3715Z" fill="#D4D5D9"/>
<path d="M99.1435 76.3715H98.1709C86.6941 76.3715 77.4219 67.117 77.4219 55.6621V51.8438H119.892V55.6621C119.892 67.117 110.62 76.3715 99.1435 76.3715Z" fill="#AF7F6B"/>
<path d="M56.6709 76.3715C45.1941 76.3715 35.9219 67.117 35.9219 55.6621V51.8438H77.355V55.6621C77.4198 67.117 68.1476 76.3715 56.6709 76.3715Z" fill="#D4D5D9"/>
<path d="M17.9608 76.3715C8.04023 76.3715 0 68.3466 0 58.4449V51.8438H35.9865V58.3802C35.9865 68.3466 27.9463 76.3715 17.9608 76.3715Z" fill="#AF7F6B"/>
<path d="M234.466 76.3715C246.526 76.3715 256.253 66.6639 256.253 54.6266V51.8438H212.68V54.6266C212.68 66.6639 222.406 76.3715 234.466 76.3715Z" fill="#D4D5D9"/>
<path d="M277.453 76.3715C289.189 76.3715 298.656 66.9228 298.656 55.209V51.8438H256.25V55.209C256.25 66.9228 265.717 76.3715 277.453 76.3715Z" fill="#AF7F6B"/>
<path d="M319.211 76.3715H319.6C330.947 76.3715 340.154 67.1817 340.154 55.8562V51.8438H298.656V55.8562C298.656 67.1817 307.864 76.3715 319.211 76.3715Z" fill="#D4D5D9"/>
<path d="M357.984 76.3715C367.839 76.3715 375.815 68.4113 375.815 58.5743V51.8438H340.152V58.5743C340.152 68.4113 348.128 76.3715 357.984 76.3715Z" fill="#AF7F6B"/>
<path d="M188.039 76.3715C174.423 76.3715 163.465 65.3696 163.465 51.8438H212.679C212.679 65.3696 201.656 76.3715 188.039 76.3715Z" fill="#AF7F6B"/>
<path d="M174.214 444.654C175.499 444.654 176.541 443.612 176.541 442.327C176.541 441.042 175.499 440 174.214 440C172.929 440 171.887 441.042 171.887 442.327C171.887 443.612 172.929 444.654 174.214 444.654Z" fill="#9A999E"/>
<path opacity="0.55" d="M187.636 444.654C188.921 444.654 189.963 443.612 189.963 442.327C189.963 441.042 188.921 440 187.636 440C186.35 440 185.309 441.042 185.309 442.327C185.309 443.612 186.35 444.654 187.636 444.654Z" fill="#9A999E"/>
<path opacity="0.35" d="M201.054 444.654C202.339 444.654 203.381 443.612 203.381 442.327C203.381 441.042 202.339 440 201.054 440C199.768 440 198.727 441.042 198.727 442.327C198.727 443.612 199.768 444.654 201.054 444.654Z" fill="#9A999E"/>
<path d="M115.495 191.378L117.253 194.963C117.33 195.192 117.559 195.344 117.788 195.344L121.762 195.954C122.373 196.031 122.603 196.793 122.144 197.175L119.24 199.997C119.087 200.15 119.011 200.378 119.011 200.607L119.699 204.574C119.775 205.184 119.164 205.641 118.629 205.336L115.037 203.506C114.808 203.429 114.578 203.429 114.349 203.506L110.757 205.336C110.222 205.641 109.611 205.184 109.688 204.574L110.375 200.607C110.452 200.378 110.375 200.15 110.146 199.997L107.242 197.175C106.784 196.793 107.013 196.031 107.624 195.954L111.598 195.344C111.827 195.344 112.057 195.192 112.133 194.963L113.891 191.378C114.502 190.844 115.266 190.844 115.495 191.378Z" fill="#DFC960"/>
<path d="M115.495 148.675L117.253 152.26C117.33 152.488 117.559 152.641 117.788 152.641L121.762 153.251C122.373 153.327 122.603 154.09 122.144 154.471L119.24 157.294C119.087 157.446 119.011 157.675 119.011 157.904L119.699 161.87C119.775 162.48 119.164 162.938 118.629 162.633L115.037 160.802C114.808 160.726 114.578 160.726 114.349 160.802L110.757 162.633C110.222 162.938 109.611 162.48 109.688 161.87L110.375 157.904C110.452 157.675 110.375 157.446 110.146 157.294L107.242 154.471C106.784 154.09 107.013 153.327 107.624 153.251L111.598 152.641C111.827 152.641 112.057 152.488 112.133 152.26L113.891 148.675C114.502 148.141 115.266 148.141 115.495 148.675Z" fill="#DFC960"/>
<path d="M138.249 309.345C160.478 309.345 178.498 291.359 178.498 269.172C178.498 246.986 160.478 229 138.249 229C116.02 229 98 246.986 98 269.172C98 291.359 116.02 309.345 138.249 309.345Z" fill="#BED3E5"/>
<path d="M165.989 280.946L155.903 272.892L153.24 270.798C153.966 269.59 154.289 268.221 154.289 266.771C154.289 262.261 150.658 258.637 146.139 258.637C141.621 258.637 137.99 262.261 137.99 266.771C137.99 267.013 137.99 267.335 138.07 267.576H131.454C131.292 267.576 131.212 267.657 131.05 267.737L117.494 280.462C117.252 280.704 117.252 281.026 117.494 281.268C117.575 281.348 117.736 281.429 117.898 281.429C118.059 281.429 118.14 281.348 118.301 281.268L118.543 281.026V288.435C118.543 288.758 118.785 288.999 119.108 288.999H133.309H142.186H146.301H155.5H164.537C164.86 288.999 165.102 288.758 165.102 288.435V281.59L165.344 281.751C165.425 281.831 165.586 281.912 165.667 281.912C165.828 281.912 165.989 281.831 166.07 281.67C166.312 281.509 166.231 281.187 165.989 280.946ZM156.145 277.805L159.615 280.543H156.145V277.805ZM139.119 266.852C139.119 262.986 142.266 259.845 146.139 259.845C150.013 259.845 153.159 262.986 153.159 266.852C153.159 267.979 152.837 269.187 152.353 270.154L149.286 267.737C149.206 267.737 149.206 267.657 149.125 267.657C149.044 267.657 149.044 267.657 148.964 267.657H139.2C139.119 267.335 139.119 267.093 139.119 266.852ZM138.474 279.899L130.889 273.939H132.422L140.491 279.899H138.474ZM133.713 279.335L133.309 279.013L127.419 273.939H129.033L136.618 279.899H134.278L133.713 279.335ZM140.572 268.784L135.811 272.811H134.197L138.958 268.784H140.572ZM138.474 276.999L136.618 275.63V274.019H138.474V276.999ZM135.407 274.744L134.278 273.939H135.407V274.744ZM137.505 272.811L142.105 268.945C142.186 268.865 142.186 268.865 142.266 268.784H143.638L138.877 272.811H137.505ZM139.603 277.805V273.939H141.701V279.335L139.603 277.805ZM142.024 272.811H140.491L145.09 268.945C145.171 268.865 145.171 268.865 145.252 268.784H147.269L142.024 272.811ZM132.422 272.811H130.808L135.407 268.945C135.488 268.865 135.488 268.865 135.569 268.784H137.263L132.422 272.811ZM131.696 268.784H133.794L129.033 272.811H127.338L131.696 268.784ZM126.209 283.523C125.644 283.523 125.16 284.006 125.16 284.57V287.872H119.673V279.979L125.967 274.1L132.745 280.06V287.952H127.258V284.65C127.338 284.006 126.854 283.523 126.209 283.523ZM133.874 281.026C133.955 281.026 134.036 281.026 134.116 281.026H138.312H141.701V287.872H133.874V281.026ZM148.964 280.946C148.076 280.946 147.269 281.67 147.269 282.637V287.952H146.381H142.831V273.697L148.964 268.945L155.096 273.697V281.187V288.033H150.658V282.717C150.577 281.67 149.851 280.946 148.964 280.946ZM163.972 287.952H156.145V281.67H163.972V287.952ZM161.471 280.543C161.39 280.543 161.39 280.543 161.471 280.543L156.145 276.355V274.503L163.73 280.543H161.471Z" fill="#002A50"/>
<path d="M162.277 284.326C162.277 283.924 161.954 283.602 161.55 283.602C161.147 283.602 160.824 283.924 160.824 284.326V285.776H162.357V284.326H162.277Z" fill="#002A50"/>
<path d="M159.374 284.326C159.374 283.924 159.052 283.602 158.648 283.602C158.245 283.602 157.922 283.924 157.922 284.326V285.776H159.455V284.326H159.374Z" fill="#002A50"/>
<path d="M139.199 283.52C138.795 283.52 138.473 283.842 138.473 284.244V285.694H140.006V284.244C140.006 283.842 139.683 283.52 139.199 283.52Z" fill="#002A50"/>
<path d="M148.965 275.789C148.561 275.789 148.238 276.111 148.238 276.514V277.964H149.771V276.514C149.691 276.111 149.368 275.789 148.965 275.789Z" fill="#002A50"/>
<path d="M146.464 275.789C146.061 275.789 145.738 276.111 145.738 276.514V277.964H147.271V276.514C147.191 276.111 146.868 275.789 146.464 275.789Z" fill="#002A50"/>
<path d="M152.117 276.592C152.117 276.189 151.794 275.867 151.39 275.867C150.987 275.867 150.664 276.189 150.664 276.592V278.042H152.197V276.592H152.117Z" fill="#002A50"/>
<path d="M136.375 283.52C135.971 283.52 135.648 283.842 135.648 284.244V285.694H137.182V284.244C137.101 283.842 136.778 283.52 136.375 283.52Z" fill="#002A50"/>
<path d="M130.234 284.326C130.234 283.924 129.911 283.602 129.507 283.602C129.104 283.602 128.781 283.924 128.781 284.326V285.776H130.314V284.326H130.234Z" fill="#002A50"/>
<path d="M122.66 283.52C122.256 283.52 121.934 283.842 121.934 284.244V285.694H123.467V284.244C123.386 283.842 123.063 283.52 122.66 283.52Z" fill="#002A50"/>
<path d="M136.467 257.023C136.386 256.943 131.545 251.144 124.686 254.446C126.058 252.916 127.994 253.319 128.156 253.319C128.398 253.399 128.72 253.158 128.801 252.916C128.882 252.674 128.64 252.352 128.398 252.272C127.752 252.111 126.865 252.191 125.977 252.433C127.833 250.822 130.011 251.064 130.092 251.064C130.415 251.144 130.657 250.903 130.657 250.661C130.738 250.339 130.496 250.097 130.254 250.097C130.254 250.097 128.478 249.856 126.622 250.822C128.962 249.05 131.787 249.05 131.948 249.05C132.271 249.05 132.513 248.809 132.513 248.567C132.513 248.245 132.271 248.003 132.029 248.003C129.285 247.923 124.363 249.292 122.991 254.768C121.62 249.292 116.697 247.923 113.954 248.003C113.631 248.003 113.47 248.245 113.47 248.567C113.47 248.889 113.712 249.05 114.035 249.05C114.196 249.05 117.101 249.05 119.36 250.822C117.504 249.856 115.729 250.097 115.729 250.178C115.406 250.258 115.245 250.5 115.326 250.742C115.406 251.064 115.648 251.225 115.891 251.144C116.052 251.144 118.15 250.822 120.086 252.513C119.199 252.191 118.231 252.191 117.666 252.352C117.424 252.433 117.182 252.674 117.262 252.997C117.343 253.238 117.585 253.48 117.908 253.399C117.989 253.399 120.329 252.997 121.7 255.01C114.438 250.742 109.193 257.023 109.112 257.104C108.951 257.346 108.951 257.668 109.193 257.829C109.274 257.909 109.435 257.909 109.516 257.909C109.677 257.909 109.839 257.829 109.919 257.748C110.081 257.587 112.259 254.93 115.729 254.607C113.308 255.332 112.098 257.185 112.098 257.265C111.937 257.507 112.017 257.829 112.259 257.99C112.34 258.07 112.421 258.07 112.502 258.07C112.663 258.07 112.824 257.99 112.905 257.829C112.986 257.668 114.357 255.574 117.262 255.413C116.213 255.896 115.568 256.701 115.164 257.346C115.003 257.587 115.084 257.909 115.326 258.07C115.406 258.151 115.487 258.151 115.568 258.151C115.729 258.151 115.891 258.07 116.052 257.909C116.133 257.748 117.827 254.93 121.458 256.379C114.277 257.668 114.519 264.675 114.599 264.755C114.599 264.997 114.842 265.238 115.084 265.238C115.406 265.238 115.568 264.997 115.568 264.675C115.568 264.513 115.487 262.339 116.778 260.326C116.213 261.856 116.455 263.144 116.455 263.144C116.536 263.386 116.697 263.547 116.94 263.547H117.02C117.262 263.466 117.504 263.225 117.424 262.983C117.424 262.903 117.101 261.131 118.392 259.52C118.231 260.245 118.231 260.97 118.311 261.453C118.392 261.695 118.553 261.856 118.795 261.856H118.876C119.118 261.775 119.36 261.534 119.28 261.211C119.28 261.131 118.715 258.393 121.781 257.346H121.862C121.781 257.99 121.62 258.634 121.62 259.279C121.62 259.52 121.62 259.681 121.781 259.842C121.781 259.842 121.942 260.003 122.184 260.003V276.272C122.184 276.594 122.427 276.755 122.669 276.755C122.911 276.755 123.153 276.513 123.153 276.272V260.003C123.314 259.923 123.476 259.842 123.556 259.842C123.718 259.681 123.718 259.44 123.718 259.279C123.718 258.715 123.637 258.232 123.556 257.668C123.637 257.587 123.718 257.426 123.718 257.346V257.265C123.798 257.265 123.879 257.265 123.96 257.265C124.04 257.265 124.121 257.346 124.202 257.346C127.268 258.393 126.703 261.05 126.703 261.211C126.622 261.453 126.784 261.775 127.107 261.856H127.187C127.429 261.856 127.671 261.695 127.671 261.453C127.752 260.97 127.833 260.245 127.591 259.52C128.882 261.131 128.559 262.903 128.559 262.983C128.478 263.225 128.72 263.547 128.962 263.547H129.043C129.285 263.547 129.527 263.386 129.527 263.144C129.527 263.144 129.769 261.856 129.205 260.326C130.496 262.258 130.415 264.513 130.415 264.675C130.415 264.997 130.657 265.238 130.899 265.238C131.141 265.238 131.383 264.997 131.383 264.755C131.383 264.675 131.625 257.426 124.121 256.379C127.671 255.091 129.285 257.909 129.366 257.99C129.447 258.151 129.608 258.232 129.85 258.232C129.931 258.232 130.011 258.232 130.092 258.151C130.334 257.99 130.415 257.668 130.254 257.426C129.931 256.782 129.205 255.976 128.156 255.493C131.06 255.735 132.432 257.829 132.513 257.909C132.594 258.07 132.755 258.151 132.916 258.151C132.997 258.151 133.078 258.151 133.158 258.07C133.4 257.909 133.481 257.587 133.32 257.346C133.32 257.346 132.109 255.493 129.689 254.688C133.158 255.091 135.418 257.668 135.498 257.829C135.579 257.99 135.741 257.99 135.902 257.99C135.983 257.99 136.144 257.99 136.225 257.909C136.628 257.507 136.628 257.185 136.467 257.023Z" fill="#002A50"/>
<path d="M238.747 309.345C260.976 309.345 278.996 291.359 278.996 269.172C278.996 246.986 260.976 229 238.747 229C216.518 229 198.498 246.986 198.498 269.172C198.498 291.359 216.518 309.345 238.747 309.345Z" fill="#BED3E5"/>
<path d="M262.937 273.53C262.598 272.938 262.09 272.346 261.666 271.754C262.005 270.823 261.751 269.808 261.073 268.963C260.988 268.794 260.819 268.624 260.649 268.54C260.31 268.117 259.802 267.779 259.209 267.61C258.701 267.44 258.107 267.44 257.514 267.61L256.582 267.948C256.243 267.779 255.904 267.61 255.481 267.44C255.904 267.018 256.413 266.256 256.413 265.411C256.497 264.734 256.243 264.142 255.735 263.55C255.057 262.873 254.125 262.451 253.193 262.451L242.516 262.873C241.415 262.873 240.228 263.55 240.228 264.903C240.228 266.595 241.33 267.779 242.262 267.948C243.194 269.216 243.702 270.823 243.702 272.599C243.702 273.53 243.618 274.46 243.364 275.39C243.279 275.813 242.855 276.067 242.431 276.067H232.094C231.67 275.898 229.891 273.783 228.62 271.584C228.535 271.415 228.45 270.485 230.399 265.58C232.009 261.351 232.772 257.799 232.602 255.6L234.043 254.416C234.212 254.754 234.466 255.008 234.805 255.177C234.89 255.177 234.975 255.262 235.144 255.262C235.398 255.262 235.568 255.177 235.737 255.008C236.331 254.501 236.585 253.317 236.331 252.302C236.161 251.625 235.822 251.118 235.398 251.033C235.06 250.949 234.721 251.033 234.466 251.202C233.873 251.625 233.619 252.64 233.789 253.655L232.433 254.754V254.67C231.924 252.978 230.399 251.287 228.027 251.287C227.688 251.287 227.433 251.287 227.094 251.371C226.078 251.541 224.976 253.148 224.976 255.262C224.976 257.292 225.739 258.898 226.84 259.068C226.925 259.068 226.925 259.068 227.01 259.068C227.01 259.068 227.772 259.068 228.111 258.983C228.45 258.898 228.874 258.814 229.213 258.729C228.111 261.182 225.061 268.202 223.875 271.331C223.79 271.5 223.79 271.584 223.79 271.754C222.01 271.415 220.231 271.584 218.621 272.346C217.011 273.022 215.571 274.206 214.638 275.644C214.469 275.898 214.469 276.236 214.554 276.49C214.638 276.743 214.893 276.997 215.147 276.997L216.926 277.42C215.825 279.027 215.655 281.057 216.248 282.833C216.926 284.609 218.367 286.047 220.231 286.639C222.095 287.231 224.129 286.808 225.654 285.708C227.179 284.524 228.111 282.748 228.111 280.803C228.111 280.634 228.111 280.465 228.111 280.296L229.806 280.718C230.06 280.803 230.399 280.718 230.569 280.549C230.823 280.38 230.908 280.126 230.908 279.873H248.702C248.448 281.649 248.956 283.425 250.058 284.778C251.244 286.131 252.939 286.892 254.718 286.892C256.497 286.892 258.192 286.131 259.378 284.778C260.565 283.425 261.073 281.564 260.734 279.873H263.191C263.53 279.873 263.785 279.703 264.039 279.534C264.293 279.281 264.378 279.027 264.378 278.689C264.462 276.997 263.869 275.137 262.937 273.53ZM234.975 251.963C234.975 251.963 235.06 251.879 235.144 251.879C235.314 251.963 235.483 252.133 235.568 252.64C235.737 253.401 235.568 254.247 235.229 254.501C235.144 254.585 235.06 254.585 235.06 254.585C234.89 254.501 234.721 254.332 234.636 253.824C234.466 253.063 234.636 252.217 234.975 251.963ZM257.768 268.371C258.192 268.286 258.616 268.286 258.955 268.371C259.378 268.455 259.717 268.709 259.972 269.047C260.141 269.216 260.226 269.386 260.395 269.47C260.819 269.978 260.988 270.485 260.988 271.077C259.972 270.062 258.785 269.216 257.514 268.54L257.768 268.371ZM241.076 264.988C241.076 263.973 242.008 263.719 242.516 263.719L253.193 263.296C253.955 263.296 254.633 263.55 255.142 264.142C255.481 264.565 255.65 264.988 255.65 265.411C255.565 266.256 254.887 266.933 254.633 267.187H242.516C242.008 267.271 241.076 266.426 241.076 264.988ZM225.823 255.431C225.823 254.078 226.417 252.978 226.925 252.555C227.094 254.501 227.094 256.446 226.84 258.391C226.247 257.968 225.823 256.869 225.823 255.431ZM227.349 281.057C227.349 282.748 226.501 284.355 225.146 285.37C223.79 286.385 222.01 286.639 220.316 286.131C218.706 285.624 217.435 284.355 216.926 282.664C216.418 281.057 216.672 279.281 217.689 277.927L220.909 278.773C220.231 279.027 219.723 279.619 219.468 280.296C219.214 280.972 219.299 281.733 219.638 282.325C219.977 282.917 220.57 283.425 221.248 283.594C221.926 283.763 222.688 283.678 223.281 283.256C223.875 282.833 224.298 282.241 224.383 281.564C224.468 280.888 224.298 280.126 223.875 279.534L227.094 280.38C227.349 280.549 227.349 280.803 227.349 281.057ZM223.79 281.057C223.79 281.564 223.62 281.987 223.281 282.325C222.942 282.664 222.519 282.833 222.01 282.833C221.502 282.833 221.078 282.664 220.739 282.325C220.4 281.987 220.231 281.564 220.231 281.057C220.231 280.549 220.4 280.126 220.739 279.788C221.078 279.45 221.502 279.281 222.01 279.281C222.519 279.281 222.942 279.45 223.281 279.788C223.62 280.126 223.79 280.634 223.79 281.057ZM230.145 280.211H230.06L227.772 279.619L217.689 277.082L215.316 276.49C215.316 276.49 215.232 276.49 215.232 276.405V276.321C216.164 274.967 217.435 273.868 218.96 273.191C220.485 272.599 222.18 272.43 223.79 272.853C223.875 273.022 223.959 273.107 224.044 273.191C225.739 274.967 227.433 277.589 228.281 278.942C228.704 279.534 229.298 279.957 230.06 280.042C230.145 280.126 230.145 280.126 230.145 280.211C230.145 280.126 230.23 280.126 230.145 280.211ZM260.141 281.057C260.141 282.579 259.548 284.017 258.362 284.947C257.26 285.962 255.735 286.469 254.294 286.3C252.769 286.131 251.413 285.37 250.566 284.186C249.634 283.002 249.295 281.48 249.549 280.042H252.43C252.091 280.803 252.176 281.733 252.684 282.41C253.193 283.086 253.955 283.509 254.803 283.509C255.65 283.509 256.413 283.086 256.921 282.41C257.43 281.733 257.514 280.803 257.175 280.042H260.056C260.056 280.465 260.141 280.718 260.141 281.057ZM256.243 280.126C256.497 280.465 256.582 280.888 256.497 281.31C256.413 281.733 256.243 282.156 255.904 282.41C255.565 282.664 255.142 282.833 254.718 282.833C254.294 282.833 253.871 282.664 253.532 282.41C253.193 282.156 253.023 281.733 252.939 281.31C252.854 280.888 252.939 280.465 253.193 280.126H256.243ZM263.615 279.196C263.53 279.281 263.446 279.281 263.361 279.281H230.569C229.975 279.281 229.467 279.027 229.128 278.519C228.281 277.082 226.501 274.46 224.807 272.684C224.637 272.43 224.552 272.176 224.637 271.923C226.078 268.032 230.399 258.476 230.399 258.476C230.484 258.306 230.399 258.137 230.314 258.053C230.23 257.968 230.06 257.884 229.891 257.968C229.806 257.968 229.721 258.053 229.637 258.053C229.128 258.306 228.535 258.391 228.027 258.56C227.857 258.56 227.772 258.56 227.603 258.645C227.857 256.53 227.942 254.501 227.688 252.386C227.857 252.386 227.942 252.386 228.111 252.386C229.975 252.386 231.331 253.824 231.755 255.177C232.348 257.038 231.585 260.844 229.806 265.58C227.857 270.654 227.857 271.754 228.111 272.261C228.789 273.361 229.552 274.46 230.314 275.475C231.67 277.166 232.009 277.166 232.263 277.166H242.601C243.025 277.166 243.364 276.997 243.702 276.828C244.041 276.574 244.211 276.236 244.296 275.898C244.55 274.967 244.635 273.953 244.635 272.938C244.635 271.162 244.211 269.639 243.364 268.286H254.803C257.599 269.47 259.548 270.908 260.904 272.346L260.988 272.43C263.361 275.052 263.785 277.758 263.785 279.196C263.785 279.027 263.7 279.111 263.615 279.196Z" fill="#002A50"/>
<path d="M230.145 280.211H230.06L227.772 279.619L217.689 277.082L215.316 276.49C215.316 276.49 215.232 276.49 215.232 276.405V276.321C216.164 274.967 217.435 273.868 218.96 273.191C220.485 272.599 222.18 272.43 223.79 272.853C223.875 273.022 223.959 273.107 224.044 273.191C225.739 274.967 227.433 277.589 228.281 278.942C228.704 279.534 229.298 279.957 230.06 280.042C230.145 280.126 230.145 280.126 230.145 280.211ZM230.145 280.211C230.23 280.126 230.145 280.126 230.145 280.211ZM262.937 273.53C262.598 272.938 262.09 272.346 261.666 271.754C262.005 270.823 261.751 269.808 261.073 268.963C260.988 268.794 260.819 268.624 260.649 268.54C260.31 268.117 259.802 267.779 259.209 267.61C258.701 267.44 258.107 267.44 257.514 267.61L256.582 267.948C256.243 267.779 255.904 267.61 255.481 267.44C255.904 267.018 256.413 266.256 256.413 265.411C256.497 264.734 256.243 264.142 255.735 263.55C255.057 262.873 254.125 262.451 253.193 262.451L242.516 262.873C241.415 262.873 240.228 263.55 240.228 264.903C240.228 266.595 241.33 267.779 242.262 267.948C243.194 269.216 243.702 270.823 243.702 272.599C243.702 273.53 243.618 274.46 243.364 275.39C243.279 275.813 242.855 276.067 242.431 276.067H232.094C231.67 275.898 229.891 273.783 228.62 271.584C228.535 271.415 228.45 270.485 230.399 265.58C232.009 261.351 232.772 257.799 232.602 255.6L234.043 254.416C234.212 254.754 234.466 255.008 234.805 255.177C234.89 255.177 234.975 255.262 235.144 255.262C235.398 255.262 235.568 255.177 235.737 255.008C236.331 254.501 236.585 253.317 236.331 252.302C236.161 251.625 235.822 251.118 235.398 251.033C235.06 250.949 234.721 251.033 234.466 251.202C233.873 251.625 233.619 252.64 233.789 253.655L232.433 254.754V254.67C231.924 252.978 230.399 251.287 228.027 251.287C227.688 251.287 227.433 251.287 227.094 251.371C226.078 251.541 224.976 253.148 224.976 255.262C224.976 257.292 225.739 258.898 226.84 259.068C226.925 259.068 226.925 259.068 227.01 259.068C227.01 259.068 227.772 259.068 228.111 258.983C228.45 258.898 228.874 258.814 229.213 258.729C228.111 261.182 225.061 268.202 223.875 271.331C223.79 271.5 223.79 271.584 223.79 271.754C222.01 271.415 220.231 271.584 218.621 272.346C217.011 273.022 215.571 274.206 214.638 275.644C214.469 275.898 214.469 276.236 214.554 276.49C214.638 276.743 214.893 276.997 215.147 276.997L216.926 277.42C215.825 279.027 215.655 281.057 216.248 282.833C216.926 284.609 218.367 286.047 220.231 286.639C222.095 287.231 224.129 286.808 225.654 285.708C227.179 284.524 228.111 282.748 228.111 280.803C228.111 280.634 228.111 280.465 228.111 280.296L229.806 280.718C230.06 280.803 230.399 280.718 230.569 280.549C230.823 280.38 230.908 280.126 230.908 279.873H248.702C248.448 281.649 248.956 283.425 250.058 284.778C251.244 286.131 252.939 286.892 254.718 286.892C256.497 286.892 258.192 286.131 259.378 284.778C260.565 283.425 261.073 281.564 260.734 279.873H263.191C263.53 279.873 263.785 279.703 264.039 279.534C264.293 279.281 264.378 279.027 264.378 278.689C264.462 276.997 263.869 275.137 262.937 273.53ZM234.975 251.963C234.975 251.963 235.06 251.879 235.144 251.879C235.314 251.963 235.483 252.133 235.568 252.64C235.737 253.401 235.568 254.247 235.229 254.501C235.144 254.585 235.06 254.585 235.06 254.585C234.89 254.501 234.721 254.332 234.636 253.824C234.466 253.063 234.636 252.217 234.975 251.963ZM257.768 268.371C258.192 268.286 258.616 268.286 258.955 268.371C259.378 268.455 259.717 268.709 259.972 269.047C260.141 269.216 260.226 269.386 260.395 269.47C260.819 269.978 260.988 270.485 260.988 271.077C259.972 270.062 258.785 269.216 257.514 268.54L257.768 268.371ZM241.076 264.988C241.076 263.973 242.008 263.719 242.516 263.719L253.193 263.296C253.955 263.296 254.633 263.55 255.142 264.142C255.481 264.565 255.65 264.988 255.65 265.411C255.565 266.256 254.887 266.933 254.633 267.187H242.516C242.008 267.271 241.076 266.426 241.076 264.988ZM225.823 255.431C225.823 254.078 226.417 252.978 226.925 252.555C227.094 254.501 227.094 256.446 226.84 258.391C226.247 257.968 225.823 256.869 225.823 255.431ZM227.349 281.057C227.349 282.748 226.501 284.355 225.146 285.37C223.79 286.385 222.01 286.639 220.316 286.131C218.706 285.624 217.435 284.355 216.926 282.664C216.418 281.057 216.672 279.281 217.689 277.927L220.909 278.773C220.231 279.027 219.723 279.619 219.468 280.296C219.214 280.972 219.299 281.733 219.638 282.325C219.977 282.917 220.57 283.425 221.248 283.594C221.926 283.763 222.688 283.678 223.281 283.256C223.875 282.833 224.298 282.241 224.383 281.564C224.468 280.888 224.298 280.126 223.875 279.534L227.094 280.38C227.349 280.549 227.349 280.803 227.349 281.057ZM223.79 281.057C223.79 281.564 223.62 281.987 223.281 282.325C222.942 282.664 222.519 282.833 222.01 282.833C221.502 282.833 221.078 282.664 220.739 282.325C220.4 281.987 220.231 281.564 220.231 281.057C220.231 280.549 220.4 280.126 220.739 279.788C221.078 279.45 221.502 279.281 222.01 279.281C222.519 279.281 222.942 279.45 223.281 279.788C223.62 280.126 223.79 280.634 223.79 281.057ZM260.141 281.057C260.141 282.579 259.548 284.017 258.362 284.947C257.26 285.962 255.735 286.469 254.294 286.3C252.769 286.131 251.413 285.37 250.566 284.186C249.634 283.002 249.295 281.48 249.549 280.042H252.43C252.091 280.803 252.176 281.733 252.684 282.41C253.193 283.086 253.955 283.509 254.803 283.509C255.65 283.509 256.413 283.086 256.921 282.41C257.43 281.733 257.514 280.803 257.175 280.042H260.056C260.056 280.465 260.141 280.718 260.141 281.057ZM256.243 280.126C256.497 280.465 256.582 280.888 256.497 281.31C256.413 281.733 256.243 282.156 255.904 282.41C255.565 282.664 255.142 282.833 254.718 282.833C254.294 282.833 253.871 282.664 253.532 282.41C253.193 282.156 253.023 281.733 252.939 281.31C252.854 280.888 252.939 280.465 253.193 280.126H256.243ZM263.615 279.196C263.53 279.281 263.446 279.281 263.361 279.281H230.569C229.975 279.281 229.467 279.027 229.128 278.519C228.281 277.082 226.501 274.46 224.807 272.684C224.637 272.43 224.552 272.176 224.637 271.923C226.078 268.032 230.399 258.476 230.399 258.476C230.484 258.306 230.399 258.137 230.314 258.053C230.23 257.968 230.06 257.884 229.891 257.968C229.806 257.968 229.721 258.053 229.637 258.053C229.128 258.306 228.535 258.391 228.027 258.56C227.857 258.56 227.772 258.56 227.603 258.645C227.857 256.53 227.942 254.501 227.688 252.386C227.857 252.386 227.942 252.386 228.111 252.386C229.975 252.386 231.331 253.824 231.755 255.177C232.348 257.038 231.585 260.844 229.806 265.58C227.857 270.654 227.857 271.754 228.111 272.261C228.789 273.361 229.552 274.46 230.314 275.475C231.67 277.166 232.009 277.166 232.263 277.166H242.601C243.025 277.166 243.364 276.997 243.702 276.828C244.041 276.574 244.211 276.236 244.296 275.898C244.55 274.967 244.635 273.953 244.635 272.938C244.635 271.162 244.211 269.639 243.364 268.286H254.803C257.599 269.47 259.548 270.908 260.904 272.346L260.988 272.43C263.361 275.052 263.785 277.758 263.785 279.196C263.785 279.027 263.7 279.111 263.615 279.196Z" stroke="#002A50" stroke-width="0.513029" stroke-miterlimit="10"/>
<path d="M254.29 270.062H248.019C247.765 270.062 247.596 270.232 247.596 270.485C247.596 270.739 247.765 270.908 248.019 270.908H254.29C254.544 270.908 254.713 270.739 254.713 270.485C254.629 270.232 254.459 270.062 254.29 270.062Z" fill="#002A50" stroke="#002A50" stroke-width="0.513029" stroke-miterlimit="10"/>
<path d="M254.29 272.008H248.019C247.765 272.008 247.596 272.177 247.596 272.431C247.596 272.684 247.765 272.854 248.019 272.854H254.29C254.544 272.854 254.713 272.684 254.713 272.431C254.713 272.177 254.459 272.008 254.29 272.008Z" fill="#002A50" stroke="#002A50" stroke-width="0.513029" stroke-miterlimit="10"/>
<path d="M215.143 251.543L220.311 254.165" stroke="#002A50" stroke-width="1.11608" stroke-miterlimit="10" stroke-linecap="round" stroke-linejoin="round"/>
<path d="M215.143 259.149L220.311 256.527" stroke="#002A50" stroke-width="1.11608" stroke-miterlimit="10" stroke-linecap="round" stroke-linejoin="round"/>
<path d="M138.249 405.689C160.478 405.689 178.498 387.703 178.498 365.517C178.498 343.33 160.478 325.344 138.249 325.344C116.02 325.344 98 343.33 98 365.517C98 387.703 116.02 405.689 138.249 405.689Z" fill="#BED3E5"/>
<path d="M158.486 354.668C158.486 354.668 158.402 354.668 158.486 354.668C158.402 354.498 158.402 354.498 158.318 354.413C158.318 354.413 158.318 354.413 158.234 354.328C158.15 354.243 158.066 354.243 157.982 354.158L152.688 351.78C153.108 351.101 153.444 350.336 153.528 349.487C153.696 347.363 152.268 345.495 150.083 344.9C148.402 344.391 146.469 344.815 144.537 346.004C143.948 346.344 143.36 346.854 142.772 347.363L138.822 345.58C138.57 345.495 138.402 345.495 138.15 345.58L134.285 347.363C132.52 345.835 130.503 344.73 128.486 344.73C127.982 344.73 127.478 344.815 126.974 344.9C124.789 345.495 123.36 347.363 123.528 349.487C123.612 350.336 123.864 351.101 124.369 351.78L119.075 354.158C118.99 354.158 118.906 354.243 118.822 354.328C118.822 354.328 118.822 354.328 118.738 354.413C118.654 354.498 118.654 354.498 118.654 354.583V354.668C118.654 354.753 118.57 354.838 118.57 354.923V377.26C118.57 377.6 118.738 377.855 119.075 378.025L138.234 386.603C138.318 386.603 138.402 386.688 138.57 386.688C138.738 386.688 138.738 386.688 138.906 386.603L158.066 378.025C158.402 377.855 158.57 377.6 158.57 377.26V354.923C158.486 354.838 158.486 354.753 158.486 354.668ZM137.73 364.096V384.565L129.411 380.828V360.358L137.73 364.096ZM138.57 362.652L130.671 359.084L137.226 356.197C137.478 356.197 137.814 356.282 138.066 356.282H138.486H138.906C139.159 356.282 139.495 356.197 139.747 356.197L146.301 359.084L138.57 362.652ZM148.486 358.15L143.192 355.857C144.369 355.687 145.545 355.517 146.722 355.262C147.814 355.008 149.831 354.328 151.427 353.139L155.629 355.008L148.486 358.15ZM145.461 347.448C146.554 346.769 147.646 346.344 148.57 346.344C148.906 346.344 149.243 346.429 149.579 346.514C150.755 346.854 151.932 347.873 151.848 349.402C151.764 351.44 148.906 352.884 146.385 353.564C144.201 354.073 141.932 354.328 139.747 354.498C140.503 352.375 142.772 349.147 145.461 347.448ZM138.57 347.278L141.511 348.637C140.251 349.996 139.243 351.525 138.57 352.969C137.898 351.525 136.89 349.996 135.629 348.637L138.57 347.278ZM127.478 346.514C127.814 346.429 128.15 346.344 128.486 346.344C132.1 346.344 136.133 351.27 137.394 354.498C135.125 354.328 132.856 354.158 130.755 353.564C128.15 352.884 125.377 351.44 125.293 349.402C125.209 347.873 126.301 346.854 127.478 346.514ZM125.713 353.054C127.226 354.243 129.243 354.923 130.419 355.177C131.596 355.432 132.772 355.687 133.948 355.772L128.654 358.065L121.511 354.838L125.713 353.054ZM120.251 356.282L127.73 359.679V380.148L120.251 376.751V356.282ZM139.411 364.096L147.73 360.358V380.828L139.411 384.565V364.096ZM149.411 380.148V359.679L156.89 356.282V376.751L149.411 380.148Z" fill="#002A50"/>
<path d="M238.747 405.689C260.976 405.689 278.996 387.703 278.996 365.517C278.996 343.33 260.976 325.344 238.747 325.344C216.518 325.344 198.498 343.33 198.498 365.517C198.498 387.703 216.518 405.689 238.747 405.689Z" fill="#BED3E5"/>
<path d="M256.406 376.57H248.791L244 368.372L244.171 368.116C244.855 367.262 245.454 366.493 245.454 365.724C245.454 365.212 245.369 363.419 245.283 362.992L244.855 359.746C244.77 359.32 244.77 358.978 244.77 358.551V354.879C244.77 353.769 244.256 352.744 243.401 352.061C244.513 351.377 245.283 350.182 245.454 348.901C245.625 347.62 245.198 346.254 244.256 345.314C243.315 344.375 242.032 343.862 240.663 344.033C239.379 344.204 238.182 344.887 237.412 345.997C236.727 347.108 236.556 348.474 236.984 349.755C237.412 351.036 238.353 351.975 239.636 352.402C238.524 353.598 237.754 355.05 237.24 356.672L236.299 355.135C236.128 354.793 235.615 354.623 235.272 354.879C234.93 355.05 234.845 355.477 235.016 355.818L236.813 358.893C236.813 359.234 236.727 359.661 236.727 360.003V361.369C236.727 363.419 237.24 365.383 238.353 367.091L238.524 367.347C238.78 367.774 238.952 368.286 238.952 368.799V373.837C238.952 374.435 238.695 374.947 238.353 375.374L237.24 376.484H232.107C229.112 376.484 226.032 375.972 223.208 375.033L220.813 374.264C220.128 374.093 219.358 374.264 218.759 374.691C218.246 375.204 217.989 375.887 218.075 376.655C218.246 377.338 218.759 377.936 219.444 378.192L222.781 379.303C224.321 379.815 225.775 380.157 227.401 380.413C226.374 381.096 225.091 381.438 223.893 381.352C222.438 381.352 221.069 380.925 219.957 380.157C218.588 379.217 216.962 378.705 215.251 378.79V380.242C216.706 380.242 218.075 380.669 219.187 381.438C220.556 382.377 222.267 382.889 223.893 382.804C225.604 382.804 227.23 382.377 228.599 381.438C229.797 380.584 231.166 380.242 232.535 380.242C233.989 380.242 235.358 380.669 236.47 381.438C237.839 382.377 239.465 382.889 241.176 382.804C242.887 382.804 244.513 382.377 245.882 381.438C246.224 381.181 246.652 381.011 246.994 380.84H248.706L249.39 383.146C247.85 383.231 246.31 383.658 245.026 384.512C243.829 385.366 242.46 385.707 241.005 385.707C239.551 385.707 238.182 385.28 237.069 384.512C235.7 383.573 234.075 383.06 232.363 383.146C230.652 383.146 229.027 383.573 227.658 384.512C226.46 385.366 225.091 385.707 223.722 385.707C222.267 385.707 220.898 385.28 219.786 384.512C218.417 383.573 216.791 383.06 215.08 383.146V384.597C216.535 384.597 217.904 385.024 219.016 385.793C220.385 386.732 222.096 387.245 223.722 387.159C225.433 387.159 227.059 386.732 228.428 385.793C229.625 384.939 230.994 384.597 232.363 384.597C233.818 384.597 235.187 385.024 236.299 385.793C237.668 386.732 239.294 387.245 241.005 387.159C242.716 387.159 244.342 386.732 245.711 385.793C246.909 384.939 248.363 384.512 249.818 384.597C250.331 385.793 251.272 386.647 252.47 387.074C253.668 387.501 254.952 387.415 256.064 386.818C257.176 386.22 257.946 385.195 258.288 383.914C258.545 382.719 258.374 381.438 257.604 380.327C258.117 379.9 258.374 379.303 258.374 378.705V378.534C258.374 378.363 258.374 378.278 258.374 378.107C258.203 377.168 257.347 376.57 256.406 376.57ZM257.091 378.619V378.79C257.091 379.046 256.919 379.217 256.748 379.388C256.321 379.046 255.893 378.876 255.379 378.705L253.24 378.022H256.492C256.748 378.022 257.091 378.278 257.091 378.619ZM247.08 376.57H243.23V369.994L247.08 376.57ZM238.182 348.303C238.182 347.535 238.524 346.766 239.037 346.254C239.551 345.741 240.321 345.4 241.091 345.4C241.861 345.4 242.631 345.741 243.144 346.254C243.657 346.766 244 347.535 244 348.303C244 349.072 243.657 349.84 243.144 350.353C242.631 350.865 241.861 351.207 241.091 351.207C240.321 351.207 239.551 350.865 239.037 350.353C238.524 349.84 238.182 349.072 238.182 348.303ZM241.091 353L241.347 352.744C241.861 352.829 242.374 353.085 242.716 353.427C243.059 353.854 243.23 354.366 243.23 354.879V358.551C243.23 359.063 243.315 359.49 243.401 360.003L243.829 363.248C243.914 363.504 243.914 364.785 243.914 365.81C243.743 366.322 243.486 366.749 243.144 367.091L241.005 363.504V357.868C241.005 357.441 240.663 357.185 240.321 357.185C239.893 357.185 239.551 357.526 239.551 357.953V361.027L238.182 358.722C238.609 356.416 239.636 354.452 241.091 353ZM239.807 366.664L239.636 366.408C238.695 364.87 238.182 363.077 238.182 361.284L242.288 368.286C242.032 368.628 241.861 369.055 241.861 369.482V376.57H239.294L239.379 376.484C240.064 375.801 240.406 374.862 240.406 373.923V368.884C240.406 368.115 240.149 367.347 239.807 366.664ZM241.091 381.438C240.149 381.438 239.123 381.267 238.267 380.84H244C243.059 381.352 242.117 381.523 241.091 381.438ZM235.529 379.473C234.502 379.046 233.476 378.876 232.363 378.876C231.422 378.876 230.396 379.046 229.454 379.303C227.23 379.132 225.091 378.619 223.037 377.936L219.7 376.826C219.444 376.741 219.273 376.485 219.273 376.228C219.273 376.058 219.358 375.801 219.529 375.716C219.7 375.631 219.957 375.545 220.128 375.631L222.524 376.399C225.519 377.424 228.684 377.936 231.936 377.936H247.85L248.278 379.388L235.529 379.473ZM254.01 385.964C253.326 385.964 252.727 385.793 252.214 385.366C251.7 385.024 251.272 384.427 251.101 383.829L249.39 378.363L254.866 380.071C255.807 380.327 256.492 381.096 256.834 382.035C257.176 382.975 257.005 384 256.406 384.768C255.893 385.537 255.037 385.964 254.01 385.964Z" fill="#002A50"/>
<path d="M218.677 354.878H231.169C231.426 354.878 231.682 354.708 231.768 354.537C232.624 353.085 232.709 351.206 231.854 349.669C231.084 348.132 229.543 347.107 227.832 346.936C227.404 345.741 226.463 344.716 225.18 344.289C223.982 343.862 222.613 343.947 221.501 344.631C220.388 345.314 219.618 346.424 219.447 347.705C219.191 347.62 218.934 347.62 218.677 347.62C217.394 347.62 216.196 348.303 215.511 349.413C214.827 350.523 214.827 351.889 215.511 353C216.11 354.195 217.308 354.878 218.677 354.878ZM218.677 349.071C219.105 349.071 219.447 349.157 219.789 349.413C220.046 349.584 220.303 349.584 220.56 349.413C220.816 349.242 220.902 348.986 220.902 348.73V348.644C220.902 348.559 220.902 348.474 220.902 348.388C220.902 347.449 221.415 346.509 222.185 345.997C222.955 345.485 223.982 345.399 224.923 345.741C225.779 346.082 226.463 346.936 226.634 347.876C226.72 348.217 226.977 348.474 227.319 348.474H227.404C228.602 348.474 229.8 349.071 230.399 350.096C230.998 351.121 231.169 352.402 230.656 353.512H218.592C217.822 353.512 217.137 353.085 216.709 352.402C216.281 351.719 216.281 350.865 216.709 350.267C217.137 349.498 217.822 349.071 218.677 349.071Z" fill="#002A50"/>
<path d="M248.967 353.427H256.154" stroke="#002A50" stroke-width="1.41664" stroke-miterlimit="10" stroke-linecap="round" stroke-linejoin="round"/>
<path d="M251.1 356.501H256.319" stroke="#002A50" stroke-width="1.41664" stroke-miterlimit="10" stroke-linecap="round" stroke-linejoin="round"/>
<path d="M258.119 356.501H259.574" stroke="#002A50" stroke-width="1.41664" stroke-miterlimit="10" stroke-linecap="round" stroke-linejoin="round"/>
<path d="M258.119 353.427H259.574" stroke="#002A50" stroke-width="1.41664" stroke-miterlimit="10" stroke-linecap="round" stroke-linejoin="round"/>
<path d="M261.545 356.501H262.999" stroke="#002A50" stroke-width="1.41664" stroke-miterlimit="10" stroke-linecap="round" stroke-linejoin="round"/>
<path d="M141.778 205.174C142.572 205.174 143.267 204.789 143.875 204.268H143.924L144.061 205H145.549V200.956C145.549 198.933 144.644 197.891 142.882 197.891C141.778 197.891 140.798 198.301 139.979 198.797L140.637 200.013C141.269 199.628 141.902 199.355 142.547 199.355C143.403 199.355 143.689 199.864 143.726 200.546C140.934 200.856 139.731 201.638 139.731 203.114C139.731 204.305 140.537 205.174 141.778 205.174ZM142.373 203.747C141.84 203.747 141.468 203.511 141.468 202.978C141.468 202.345 142.026 201.886 143.726 201.675V203.077C143.279 203.511 142.895 203.747 142.373 203.747ZM152.334 205.174C153.053 205.174 153.748 204.789 154.257 204.28H154.294L154.43 205H155.919V195.112H154.095V197.544L154.17 198.636C153.661 198.176 153.177 197.891 152.396 197.891C150.907 197.891 149.48 199.268 149.48 201.539C149.48 203.821 150.597 205.174 152.334 205.174ZM152.793 203.673C151.887 203.673 151.353 202.965 151.353 201.514C151.353 200.124 152.023 199.38 152.805 199.38C153.239 199.38 153.686 199.529 154.095 199.913V202.965C153.698 203.474 153.289 203.673 152.793 203.673ZM160.355 205H162.179V198.065H160.355V205ZM161.261 196.936C161.893 196.936 162.328 196.539 162.328 195.931C162.328 195.335 161.893 194.951 161.261 194.951C160.628 194.951 160.206 195.335 160.206 195.931C160.206 196.539 160.628 196.936 161.261 196.936ZM166.604 207.667H168.428V205.558L168.366 204.429C168.887 204.913 169.483 205.174 170.078 205.174C171.604 205.174 173.031 203.809 173.031 201.427C173.031 199.281 172.013 197.891 170.301 197.891C169.557 197.891 168.837 198.276 168.267 198.784H168.229L168.081 198.065H166.604V207.667ZM169.681 203.673C169.309 203.673 168.862 203.548 168.428 203.164V200.099C168.899 199.616 169.321 199.38 169.78 199.38C170.748 199.38 171.157 200.112 171.157 201.452C171.157 202.953 170.512 203.673 169.681 203.673ZM177.07 205H178.893V198.065H177.07V205ZM177.975 196.936C178.608 196.936 179.042 196.539 179.042 195.931C179.042 195.335 178.608 194.951 177.975 194.951C177.343 194.951 176.921 195.335 176.921 195.931C176.921 196.539 177.343 196.936 177.975 196.936ZM185.304 205.174C187.103 205.174 188.058 204.206 188.058 202.978C188.058 201.7 187.053 201.228 186.135 200.881C185.391 200.621 184.758 200.422 184.758 199.926C184.758 199.516 185.043 199.243 185.676 199.243C186.185 199.243 186.681 199.492 187.165 199.839L187.996 198.747C187.425 198.301 186.631 197.891 185.627 197.891C184.039 197.891 183.046 198.772 183.046 200C183.046 201.179 184.026 201.7 184.907 202.047C185.627 202.32 186.359 202.568 186.359 203.077C186.359 203.511 186.036 203.821 185.341 203.821C184.696 203.821 184.113 203.536 183.48 203.052L182.661 204.206C183.344 204.777 184.374 205.174 185.304 205.174ZM194.883 205.174C195.652 205.174 196.508 204.913 197.166 204.342L196.446 203.139C196.062 203.449 195.59 203.697 195.082 203.697C194.089 203.697 193.37 202.841 193.37 201.539C193.37 200.224 194.077 199.38 195.156 199.38C195.528 199.38 195.863 199.529 196.211 199.827L197.067 198.66C196.558 198.214 195.913 197.891 195.044 197.891C193.159 197.891 191.509 199.231 191.509 201.539C191.509 203.834 192.973 205.174 194.883 205.174ZM200.967 205H202.79V198.065H200.967V205ZM201.872 196.936C202.505 196.936 202.939 196.539 202.939 195.931C202.939 195.335 202.505 194.951 201.872 194.951C201.24 194.951 200.818 195.335 200.818 195.931C200.818 196.539 201.24 196.936 201.872 196.936ZM214.071 205H216.18L218.5 198.065H216.739L215.721 201.526C215.535 202.209 215.349 202.916 215.163 203.623H215.101C214.915 202.916 214.729 202.209 214.543 201.526L213.538 198.065H211.689L214.071 205ZM224.995 205.174C225.851 205.174 226.72 204.888 227.402 204.417L226.794 203.288C226.285 203.598 225.789 203.772 225.231 203.772C224.201 203.772 223.457 203.189 223.295 202.047H227.588C227.625 201.874 227.662 201.551 227.662 201.204C227.662 199.281 226.682 197.891 224.759 197.891C223.122 197.891 221.534 199.281 221.534 201.539C221.534 203.834 223.047 205.174 224.995 205.174ZM223.271 200.831C223.419 199.814 224.065 199.293 224.797 199.293C225.69 199.293 226.112 199.889 226.112 200.831H223.271ZM233.37 205.174C233.804 205.174 234.09 205.099 234.301 205.025L234.077 203.673C233.953 203.697 233.904 203.697 233.841 203.697C233.668 203.697 233.482 203.561 233.482 203.127V195.112H231.658V203.052C231.658 204.342 232.092 205.174 233.37 205.174ZM238.053 205H239.876V198.065H238.053V205ZM238.958 196.936C239.591 196.936 240.025 196.539 240.025 195.931C240.025 195.335 239.591 194.951 238.958 194.951C238.326 194.951 237.904 195.335 237.904 195.931C237.904 196.539 238.326 196.936 238.958 196.936ZM246.833 205.174C247.453 205.174 247.937 205.037 248.309 204.913L248.011 203.586C247.813 203.66 247.552 203.747 247.317 203.747C246.709 203.747 246.374 203.375 246.374 202.581V199.492H248.098V198.065H246.374V196.179H244.86L244.662 198.065L243.582 198.139V199.492H244.55V202.581C244.55 204.132 245.183 205.174 246.833 205.174ZM252.877 205.174C253.522 205.174 254.019 204.665 254.019 203.983C254.019 203.3 253.522 202.804 252.877 202.804C252.22 202.804 251.748 203.3 251.748 203.983C251.748 204.665 252.22 205.174 252.877 205.174Z" fill="#BED3E5"/>
<path d="M141.778 163.174C142.572 163.174 143.267 162.789 143.875 162.268H143.924L144.061 163H145.549V158.956C145.549 156.933 144.644 155.891 142.882 155.891C141.778 155.891 140.798 156.301 139.979 156.797L140.637 158.013C141.269 157.628 141.902 157.355 142.547 157.355C143.403 157.355 143.689 157.864 143.726 158.546C140.934 158.856 139.731 159.638 139.731 161.114C139.731 162.305 140.537 163.174 141.778 163.174ZM142.373 161.747C141.84 161.747 141.468 161.511 141.468 160.978C141.468 160.345 142.026 159.886 143.726 159.675V161.077C143.279 161.511 142.895 161.747 142.373 161.747ZM152.334 163.174C153.053 163.174 153.748 162.789 154.257 162.28H154.294L154.43 163H155.919V153.112H154.095V155.544L154.17 156.636C153.661 156.176 153.177 155.891 152.396 155.891C150.907 155.891 149.48 157.268 149.48 159.539C149.48 161.821 150.597 163.174 152.334 163.174ZM152.793 161.673C151.887 161.673 151.353 160.965 151.353 159.514C151.353 158.124 152.023 157.38 152.805 157.38C153.239 157.38 153.686 157.529 154.095 157.913V160.965C153.698 161.474 153.289 161.673 152.793 161.673ZM160.355 163H162.179V156.065H160.355V163ZM161.261 154.936C161.893 154.936 162.328 154.539 162.328 153.931C162.328 153.335 161.893 152.951 161.261 152.951C160.628 152.951 160.206 153.335 160.206 153.931C160.206 154.539 160.628 154.936 161.261 154.936ZM166.604 165.667H168.428V163.558L168.366 162.429C168.887 162.913 169.483 163.174 170.078 163.174C171.604 163.174 173.031 161.809 173.031 159.427C173.031 157.281 172.013 155.891 170.301 155.891C169.557 155.891 168.837 156.276 168.267 156.784H168.229L168.081 156.065H166.604V165.667ZM169.681 161.673C169.309 161.673 168.862 161.548 168.428 161.164V158.099C168.899 157.616 169.321 157.38 169.78 157.38C170.748 157.38 171.157 158.112 171.157 159.452C171.157 160.953 170.512 161.673 169.681 161.673ZM177.07 163H178.893V156.065H177.07V163ZM177.975 154.936C178.608 154.936 179.042 154.539 179.042 153.931C179.042 153.335 178.608 152.951 177.975 152.951C177.343 152.951 176.921 153.335 176.921 153.931C176.921 154.539 177.343 154.936 177.975 154.936ZM185.304 163.174C187.103 163.174 188.058 162.206 188.058 160.978C188.058 159.7 187.053 159.228 186.135 158.881C185.391 158.621 184.758 158.422 184.758 157.926C184.758 157.516 185.043 157.243 185.676 157.243C186.185 157.243 186.681 157.492 187.165 157.839L187.996 156.747C187.425 156.301 186.631 155.891 185.627 155.891C184.039 155.891 183.046 156.772 183.046 158C183.046 159.179 184.026 159.7 184.907 160.047C185.627 160.32 186.359 160.568 186.359 161.077C186.359 161.511 186.036 161.821 185.341 161.821C184.696 161.821 184.113 161.536 183.48 161.052L182.661 162.206C183.344 162.777 184.374 163.174 185.304 163.174ZM194.883 163.174C195.652 163.174 196.508 162.913 197.166 162.342L196.446 161.139C196.062 161.449 195.59 161.697 195.082 161.697C194.089 161.697 193.37 160.841 193.37 159.539C193.37 158.224 194.077 157.38 195.156 157.38C195.528 157.38 195.863 157.529 196.211 157.827L197.067 156.66C196.558 156.214 195.913 155.891 195.044 155.891C193.159 155.891 191.509 157.231 191.509 159.539C191.509 161.834 192.973 163.174 194.883 163.174ZM200.967 163H202.79V156.065H200.967V163ZM201.872 154.936C202.505 154.936 202.939 154.539 202.939 153.931C202.939 153.335 202.505 152.951 201.872 152.951C201.24 152.951 200.818 153.335 200.818 153.931C200.818 154.539 201.24 154.936 201.872 154.936ZM214.071 163H216.18L218.5 156.065H216.739L215.721 159.526C215.535 160.209 215.349 160.916 215.163 161.623H215.101C214.915 160.916 214.729 160.209 214.543 159.526L213.538 156.065H211.689L214.071 163ZM224.995 163.174C225.851 163.174 226.72 162.888 227.402 162.417L226.794 161.288C226.285 161.598 225.789 161.772 225.231 161.772C224.201 161.772 223.457 161.189 223.295 160.047H227.588C227.625 159.874 227.662 159.551 227.662 159.204C227.662 157.281 226.682 155.891 224.759 155.891C223.122 155.891 221.534 157.281 221.534 159.539C221.534 161.834 223.047 163.174 224.995 163.174ZM223.271 158.831C223.419 157.814 224.065 157.293 224.797 157.293C225.69 157.293 226.112 157.889 226.112 158.831H223.271ZM233.37 163.174C233.804 163.174 234.09 163.099 234.301 163.025L234.077 161.673C233.953 161.697 233.904 161.697 233.841 161.697C233.668 161.697 233.482 161.561 233.482 161.127V153.112H231.658V161.052C231.658 162.342 232.092 163.174 233.37 163.174ZM238.053 163H239.876V156.065H238.053V163ZM238.958 154.936C239.591 154.936 240.025 154.539 240.025 153.931C240.025 153.335 239.591 152.951 238.958 152.951C238.326 152.951 237.904 153.335 237.904 153.931C237.904 154.539 238.326 154.936 238.958 154.936ZM246.833 163.174C247.453 163.174 247.937 163.037 248.309 162.913L248.011 161.586C247.813 161.66 247.552 161.747 247.317 161.747C246.709 161.747 246.374 161.375 246.374 160.581V157.492H248.098V156.065H246.374V154.179H244.86L244.662 156.065L243.582 156.139V157.492H244.55V160.581C244.55 162.132 245.183 163.174 246.833 163.174ZM252.877 163.174C253.522 163.174 254.019 162.665 254.019 161.983C254.019 161.3 253.522 160.804 252.877 160.804C252.22 160.804 251.748 161.3 251.748 161.983C251.748 162.665 252.22 163.174 252.877 163.174Z" fill="#BED3E5"/>
<path d="M80.0051 123H85.9661L89.0122 110.816C89.6345 108.392 90.2895 105.543 90.8791 102.988H91.0101C91.6652 105.477 92.2875 108.392 92.9425 110.816L95.9885 123H102.146L94.5802 98.5991H87.571L80.0051 123ZM85.1473 117.399H96.9384V112.879H85.1473V117.399ZM110.798 123H116.628V112.355C117.578 109.899 119.248 109.014 120.624 109.014C121.443 109.014 122 109.146 122.687 109.309L123.637 104.298C123.113 104.069 122.491 103.905 121.377 103.905C119.51 103.905 117.447 105.117 116.071 107.606H115.973L115.547 104.364H110.798V123ZM138.615 130.828C145.101 130.828 149.195 128.044 149.195 124.114C149.195 120.74 146.574 119.332 141.989 119.332H139.041C137.043 119.332 136.29 118.939 136.29 118.087C136.29 117.432 136.487 117.17 136.88 116.777C137.698 117.006 138.452 117.104 139.074 117.104C143.201 117.104 146.509 115.205 146.509 110.849C146.509 109.964 146.28 109.113 146.018 108.589H148.867V104.364H142.022C141.17 104.069 140.155 103.905 139.074 103.905C135.045 103.905 131.279 106.132 131.279 110.652C131.279 112.847 132.491 114.582 133.834 115.5V115.631C132.589 116.482 131.737 117.792 131.737 119.102C131.737 120.675 132.458 121.657 133.441 122.312V122.476C131.705 123.36 130.82 124.605 130.82 126.144C130.82 129.485 134.325 130.828 138.615 130.828ZM139.074 113.6C137.731 113.6 136.716 112.617 136.716 110.652C136.716 108.785 137.731 107.803 139.074 107.803C140.45 107.803 141.465 108.785 141.465 110.652C141.465 112.617 140.45 113.6 139.074 113.6ZM139.533 127.192C137.174 127.192 135.602 126.537 135.602 125.227C135.602 124.605 135.864 124.081 136.454 123.557C137.043 123.721 137.764 123.786 139.107 123.786H140.875C142.611 123.786 143.594 124.015 143.594 125.129C143.594 126.308 141.924 127.192 139.533 127.192ZM166.19 123.459C168.352 123.459 170.906 122.705 172.839 121.33L170.906 117.825C169.563 118.611 168.319 119.004 166.976 119.004C164.618 119.004 162.849 117.956 162.325 115.401H173.265C173.396 114.943 173.527 113.927 173.527 112.879C173.527 107.803 170.906 103.905 165.535 103.905C161.048 103.905 156.692 107.639 156.692 113.665C156.692 119.856 160.818 123.459 166.19 123.459ZM162.227 111.569C162.62 109.375 164.028 108.359 165.633 108.359C167.762 108.359 168.581 109.735 168.581 111.569H162.227ZM183.801 123H189.631V110.554C190.745 109.473 191.531 108.883 192.841 108.883C194.315 108.883 195.003 109.604 195.003 112.192V123H200.833V111.471C200.833 106.82 199.097 103.905 195.035 103.905C192.514 103.905 190.614 105.182 189.074 106.689H188.976L188.55 104.364H183.801V123ZM219.247 123.459C221.146 123.459 222.489 123.066 223.472 122.771L222.555 118.546C222.096 118.709 221.441 118.906 220.851 118.906C219.476 118.906 218.493 118.087 218.493 116.024V108.916H222.882V104.364H218.493V99.4179H213.679L213.024 104.364L210.141 104.593V108.916H212.663V116.089C212.663 120.478 214.563 123.459 219.247 123.459ZM233.046 123H238.876V104.364H233.046V123ZM235.961 101.776C237.893 101.776 239.203 100.597 239.203 98.7628C239.203 96.9614 237.893 95.7823 235.961 95.7823C233.996 95.7823 232.718 96.9614 232.718 98.7628C232.718 100.597 233.996 101.776 235.961 101.776ZM250.12 123H255.95V110.554C257.063 109.473 257.849 108.883 259.159 108.883C260.633 108.883 261.321 109.604 261.321 112.192V123H267.151V111.471C267.151 106.82 265.415 103.905 261.354 103.905C258.832 103.905 256.932 105.182 255.393 106.689H255.294L254.869 104.364H250.12V123ZM282.945 123.459C285.008 123.459 286.744 122.509 288.283 121.133H288.447L288.84 123H293.589V112.421C293.589 106.591 290.871 103.905 286.056 103.905C283.141 103.905 280.488 104.888 278.032 106.362L280.062 110.194C281.929 109.146 283.469 108.556 284.943 108.556C286.842 108.556 287.628 109.44 287.759 110.947C280.488 111.733 277.409 113.862 277.409 117.792C277.409 120.904 279.506 123.459 282.945 123.459ZM284.943 118.939C283.731 118.939 282.945 118.415 282.945 117.334C282.945 116.024 284.124 114.943 287.759 114.484V117.465C286.908 118.382 286.122 118.939 284.943 118.939Z" fill="#B57556"/>
</g>
<defs>
<clipPath id="clip0_305_14192">
<rect width="376" height="493" fill="white"/>
</clipPath>
</defs>
</svg>
